<svg xmlns="http://www.w3.org/2000/svg" viewBox="0 0 1080 787.97"><defs><style>.cls-1,.cls-4{fill:#900;}.cls-2{fill:#c00;}.cls-3{fill:#d52421;}.cls-4{font-size:59.38px;font-family:AcuminPro-Regular, Acumin Pro;}.cls-5{letter-spacing:0em;}.cls-6{letter-spacing:0.01em;}.cls-7{letter-spacing:0em;}.cls-8{letter-spacing:0.01em;}.cls-9{letter-spacing:-0.01em;}.cls-10{letter-spacing:-0.01em;}</style></defs><g id="Layer_2" data-name="Layer 2"><g id="Layer_1-2" data-name="Layer 1"><polygon class="cls-1" points="823.97 491.86 684.13 491.86 656.42 475.8 540 408.38 423.58 475.8 395.87 491.86 256.03 491.86 395.87 410.86 470.08 367.88 540 327.38 581.48 351.41 609.92 367.88 684.13 410.86 823.97 491.86"/><polygon class="cls-2" points="823.97 491.86 684.13 491.86 656.42 443.85 540 242.22 423.58 443.85 395.87 491.86 256.03 491.86 395.87 249.64 470.08 121.12 540 0 581.48 71.84 609.92 121.12 684.13 249.64 823.97 491.86"/><path class="cls-3" d="M163,657.63c0,17.71,1.41,43.22,2.47,47.47H116.89c-1.41-3.54-2.47-13.46-2.47-18.07-6.73,10.28-19.13,22.32-51.72,22.32C18.42,709.35,0,680.3,0,652c0-41.8,33.3-61.29,87.14-61.29h26.21v-11c0-13.1-4.6-25.86-28.34-25.86-21.25,0-26.21,8.86-28.33,22.32H8.5c2.48-32.59,22.67-58.8,78.64-58.8C136,517.71,163,536.84,163,580.77Zm-49.6-36.13H92.81c-30.82,0-42.16,9.57-42.16,27.28,0,13.1,8.15,24.44,26.57,24.44,32.24,0,36.13-22.67,36.13-46.76Z"/><path class="cls-3" d="M208.63,775.24V565.89c0-14.88,0-29.4-.35-44.28h49.24a212.64,212.64,0,0,1,1.77,23c7.79-13.47,24.08-27.28,53.13-27.28,41.45,0,73,34.71,73,91.39,0,64.82-35.42,100.6-79.7,100.6-25.86,0-39.32-9.92-46.4-20.54v86.43Zm87.5-217.14c-28.7,0-39,18.77-39,55.61,0,35.07,9.57,55.26,36.84,55.26,26.92,0,40-20.9,40-58.09C334,577.22,320.57,558.1,296.13,558.1Z"/><path class="cls-3" d="M463,624.34c0,23,11.69,45.34,36.84,45.34,21.25,0,27.27-8.5,32.23-19.49h50.66c-6.38,22.32-26.57,59.16-84,59.16-60.58,0-86.79-45-86.79-93.16,0-57.74,29.4-98.83,88.56-98.83,62.7,0,84.3,45.69,84.3,91.39a108.57,108.57,0,0,1-.7,15.59Zm70.84-31.18c-.35-21.25-8.85-39.32-33.65-39.32-24.08,0-34,16.65-36.13,39.32Z"/><path class="cls-3" d="M620.58,568c0-15.58,0-32.59-.35-46.4h49.24c1.06,5,1.77,17.71,2.12,23.38,6-11.34,20.9-27.63,53.13-27.63,36.84,0,60.58,25.15,60.58,71.2V705.1H734.64V594.23c0-20.9-6.73-35.78-29.4-35.78-21.61,0-33.65,12-33.65,44.63v102h-51Z"/><path class="cls-3" d="M830.28,491.86V446.51h51v45.35Zm0,29.75h51V705.1h-51Z"/><path class="cls-3" d="M1077.52,657.63c0,17.71,1.42,43.22,2.48,47.47h-48.53c-1.42-3.54-2.48-13.46-2.48-18.07-6.73,10.28-19.13,22.32-51.72,22.32-44.28,0-62.69-29.05-62.69-57.38,0-41.8,33.29-61.29,87.13-61.29h26.22v-11c0-13.1-4.61-25.86-28.34-25.86-21.25,0-26.21,8.86-28.34,22.32H923.08c2.48-32.59,22.67-58.8,78.63-58.8,48.89.35,75.81,19.48,75.81,63.41Zm-49.59-36.13h-20.55c-30.82,0-42.15,9.57-42.15,27.28,0,13.1,8.15,24.44,26.57,24.44,32.23,0,36.13-22.67,36.13-46.76Z"/><text class="cls-4" transform="translate(435.02 772.41)"><tspan class="cls-5">D</tspan><tspan x="43.05" y="0">ig</tspan><tspan class="cls-5" x="90.79" y="0">i</tspan><tspan x="105.1" y="0">tal bank </tspan><tspan class="cls-6" x="328.49" y="0">o</tspan><tspan x="361.5" y="0">f </tspan><tspan class="cls-7" x="393.33" y="0">t</tspan><tspan x="412.03" y="0">he f</tspan><tspan class="cls-8" x="508.52" y="0">u</tspan><tspan class="cls-9" x="542.25" y="0">t</tspan><tspan x="560.42" y="0">u</tspan><tspan class="cls-10" x="593.49" y="0">r</tspan><tspan x="613.92" y="0">e</tspan></text></g></g></svg>